# xmcd CD database file
#
# Track frame offsets:
#	150
#	11701
#	24779
#	41463
#	55448
#	74419
#	90920
#	104294
#	124871
#	135301
#	148422
#
# Disc length: 2198 seconds
#
# Revision: 12
# Processed by: cddbd v1.5.2PL0 Copyright (c) Steve Scherf et al.
# Submitted via: CDex 1.78
#
DISCID=9108940b
DTITLE=Garth Brooks - Garth Brooks (2005 remastered)
DYEAR=1989
DGENRE=Country
TTITLE0=Not Counting You
TTITLE1=I've Got a Good Thing Going
TTITLE2=If Tomorrow Never Comes
TTITLE3=Uptown Down - Home Good Ol' Boy
TTITLE4=Everytime That It Rains
TTITLE5=Alabama Clay
TTITLE6=Much Too Young (To Feel This Damn Old)
TTITLE7=Cowboy Bill
TTITLE8=Nobody Gets Off in This Town
TTITLE9=I Know One
TTITLE10=The Dance
EXTD=YEAR: 1989
EXTT0=
EXTT1=
EXTT2=
EXTT3=
EXTT4=
EXTT5=
EXTT6=
EXTT7=
EXTT8=
EXTT9=
EXTT10=
PLAYORDER=
